<?xml version="1.0" standalone="no"?>
<!DOCTYPE svg PUBLIC "-//W3C//DTD SVG 20010904//EN"
 "http://www.w3.org/TR/2001/REC-SVG-20010904/DTD/svg10.dtd">
<svg version="1.0" xmlns="http://www.w3.org/2000/svg"
 width="3072.000000pt" height="2048.000000pt" viewBox="0 0 3072.000000 2048.000000"
 preserveAspectRatio="xMidYMid meet">

<g transform="translate(0.000000,2048.000000) scale(0.100000,-0.100000)"
fill="#000000" stroke="none">
<path d="M6618 13793 c7 -3 16 -2 19 1 4 3 -2 6 -13 5 -11 0 -14 -3 -6 -6z"/>
<path d="M6578 13783 c7 -3 16 -2 19 1 4 3 -2 6 -13 5 -11 0 -14 -3 -6 -6z"/>
<path d="M6445 13750 c-13 -6 -15 -9 -5 -9 8 0 22 4 30 9 18 12 2 12 -25 0z"/>
<path d="M6288 13684 c-38 -19 -68 -37 -68 -39 0 -5 139 62 149 71 14 13 -23
-2 -81 -32z"/>
<path d="M7165 11789 c-83 -11 -168 -31 -179 -41 -6 -4 -16 -8 -24 -8 -7 0
-95 -41 -195 -92 -100 -50 -192 -96 -204 -102 -13 -6 -23 -14 -23 -18 0 -5 -9
-8 -20 -8 -11 0 -20 -4 -20 -10 0 -5 -9 -10 -20 -10 -11 0 -20 -4 -20 -10 0
-5 -9 -10 -20 -10 -11 0 -20 -4 -20 -10 0 -5 -9 -10 -20 -10 -11 0 -20 -4 -20
-10 0 -5 -9 -10 -20 -10 -11 0 -20 -4 -20 -10 0 -5 -9 -10 -19 -10 -11 0 -21
-3 -23 -8 -1 -4 -48 -30 -103 -58 -227 -114 -350 -179 -353 -186 -2 -5 -12 -8
-23 -8 -10 0 -19 -4 -19 -10 0 -5 -9 -10 -20 -10 -11 0 -20 -3 -20 -7 0 -9
-48 -33 -66 -33 -7 0 -14 -3 -16 -7 -4 -11 -87 -53 -103 -53 -7 0 -15 -3 -17
-7 -3 -8 -69 -46 -115 -68 -13 -5 -23 -13 -23 -17 0 -5 -9 -8 -20 -8 -11 0
-20 -4 -20 -10 0 -5 -9 -10 -20 -10 -11 0 -20 -3 -20 -7 0 -9 -48 -33 -66 -33
-7 0 -14 -3 -16 -8 -2 -6 -239 -130 -355 -186 -13 -6 -23 -14 -23 -18 0 -5 -9
-8 -20 -8 -11 0 -20 -4 -20 -10 0 -5 -9 -10 -20 -10 -11 0 -20 -4 -20 -10 0
-5 -9 -10 -20 -10 -11 0 -20 -4 -20 -10 0 -5 -9 -10 -20 -10 -11 0 -20 -4 -20
-10 0 -5 -6 -10 -13 -10 -7 0 -23 -9 -35 -20 -12 -11 -26 -20 -32 -20 -16 0
-60 -47 -60 -65 0 -8 -4 -15 -8 -15 -9 0 -52 -89 -52 -108 0 -7 -4 -12 -10
-12 -5 0 -10 -11 -10 -24 0 -14 -4 -28 -10 -31 -5 -3 -10 -15 -10 -26 0 -10
-4 -19 -8 -19 -5 0 -15 -22 -22 -50 -7 -27 -17 -50 -22 -50 -4 0 -8 -13 -8
-30 0 -16 -4 -30 -10 -30 -5 0 -10 -9 -10 -20 0 -11 -4 -20 -10 -20 -5 0 -10
-13 -10 -30 0 -16 -4 -30 -8 -30 -5 0 -15 -22 -22 -50 -7 -27 -17 -50 -22 -50
-4 0 -8 -13 -8 -30 0 -16 -4 -30 -10 -30 -5 0 -10 -9 -10 -20 0 -11 -4 -20
-10 -20 -5 0 -10 -13 -10 -30 0 -16 -4 -30 -10 -30 -5 0 -10 -13 -10 -30 0
-16 -4 -30 -10 -30 -5 0 -10 -9 -10 -20 0 -11 -4 -20 -10 -20 -5 0 -10 -13
-10 -30 0 -16 -4 -30 -10 -30 -5 0 -10 -9 -10 -20 0 -11 -4 -20 -10 -20 -5 0
-10 -13 -10 -30 0 -16 -4 -30 -10 -30 -5 0 -10 -9 -10 -20 0 -11 -4 -20 -10
-20 -5 0 -10 -13 -10 -30 0 -16 -4 -30 -10 -30 -5 0 -10 -9 -10 -20 0 -11 -4
-20 -10 -20 -5 0 -10 -13 -10 -30 0 -16 -4 -30 -8 -30 -5 0 -15 -22 -22 -50
-7 -27 -17 -50 -22 -50 -4 0 -8 -11 -8 -24 0 -14 -4 -28 -10 -31 -5 -3 -10
-15 -10 -26 0 -10 -4 -19 -10 -19 -5 0 -10 -11 -10 -24 0 -14 -4 -28 -10 -31
-5 -3 -10 -15 -10 -26 0 -10 -4 -19 -10 -19 -5 0 -10 -11 -10 -24 0 -14 -4
-28 -10 -31 -5 -3 -10 -15 -10 -26 0 -10 -4 -19 -10 -19 -5 0 -10 -13 -10 -30
0 -16 -4 -30 -10 -30 -5 0 -10 -9 -10 -20 0 -11 -4 -20 -10 -20 -5 0 -10 -13
-10 -30 0 -16 -4 -30 -10 -30 -5 0 -10 -11 -10 -24 0 -14 -4 -28 -10 -31 -5
-3 -10 -15 -10 -26 0 -10 -4 -19 -10 -19 -5 0 -10 -9 -10 -20 0 -11 -4 -20
-10 -20 -5 0 -10 -13 -10 -30 0 -16 -4 -30 -10 -30 -5 0 -10 -11 -10 -24 0
-14 -4 -28 -10 -31 -5 -3 -10 -15 -10 -26 0 -10 -4 -19 -10 -19 -5 0 -10 -13
-10 -30 0 -16 -4 -30 -10 -30 -5 0 -10 -9 -10 -20 0 -11 -4 -20 -10 -20 -5 0
-10 -13 -10 -30 0 -16 -4 -30 -10 -30 -5 0 -10 -9 -10 -20 0 -11 -4 -20 -10
-20 -5 0 -10 -13 -10 -30 0 -16 -4 -30 -8 -30 -5 0 -15 -22 -22 -50 -7 -27
-17 -50 -22 -50 -4 0 -8 -13 -8 -30 0 -16 -4 -30 -10 -30 -5 0 -10 -9 -10 -20
0 -11 -4 -20 -10 -20 -5 0 -10 -13 -10 -30 0 -16 -4 -30 -10 -30 -5 0 -10 -9
-10 -20 0 -11 -4 -20 -10 -20 -5 0 -10 -13 -10 -30 l0 -30 1013 4 c642 2 1041
8 1092 14 149 20 170 24 181 33 6 5 25 9 42 11 18 1 32 6 32 10 0 4 9 8 20 8
11 0 20 5 20 10 0 6 9 10 20 10 11 0 20 5 20 10 0 6 9 10 20 10 11 0 20 5 20
10 0 6 8 10 18 10 10 0 24 9 32 20 8 11 21 20 30 20 9 0 22 9 30 20 8 11 23
20 33 20 10 0 15 5 12 10 -3 6 -1 10 5 10 13 0 114 102 118 120 2 7 15 25 30
39 15 14 28 33 30 41 2 8 8 17 13 18 5 2 9 12 9 23 0 10 5 19 10 19 6 0 10 8
10 18 0 10 9 24 20 32 11 8 20 22 20 32 0 10 5 18 11 18 5 0 8 4 4 9 -3 5 2
16 10 24 8 9 15 23 15 31 0 9 5 16 10 16 6 0 10 9 10 20 0 11 5 20 10 20 6 0
10 9 10 20 0 11 5 20 10 20 6 0 10 9 10 20 0 11 5 20 10 20 6 0 10 14 10 30 0
17 5 30 10 30 6 0 10 9 10 20 0 11 5 20 10 20 6 0 10 9 10 20 0 11 5 20 10 20
6 0 10 9 10 20 0 11 5 20 10 20 6 0 10 9 10 20 0 11 5 20 10 20 6 0 10 9 10
20 0 11 5 20 10 20 6 0 10 9 10 20 0 11 5 20 10 20 6 0 10 9 10 20 0 11 5 20
10 20 6 0 10 9 10 20 0 11 5 20 10 20 6 0 10 9 10 20 0 11 5 20 10 20 6 0 10
9 10 20 0 11 5 20 10 20 6 0 10 10 10 23 0 13 9 33 20 45 11 12 20 28 20 37 0
8 5 15 10 15 6 0 10 14 10 30 0 17 5 30 10 30 6 0 10 9 10 20 0 11 5 20 10 20
6 0 10 9 10 20 0 11 5 20 10 20 6 0 10 9 10 20 0 11 5 20 10 20 6 0 10 9 10
20 0 11 5 20 10 20 6 0 10 9 10 20 0 11 5 20 10 20 6 0 10 9 10 20 0 11 5 20
10 20 6 0 10 12 10 26 0 14 4 23 10 19 6 -4 10 7 10 24 0 17 5 31 10 31 6 0
10 9 10 20 0 11 5 20 10 20 6 0 10 9 10 20 0 11 5 20 10 20 6 0 10 9 10 20 0
11 5 20 10 20 6 0 10 9 10 20 0 11 5 20 10 20 6 0 10 9 10 20 0 11 5 20 10 20
6 0 10 9 10 20 0 11 5 20 10 20 6 0 10 9 10 20 0 11 5 20 10 20 6 0 10 14 10
30 0 17 5 30 10 30 6 0 10 9 10 20 0 11 5 20 10 20 6 0 10 9 10 20 0 11 5 20
10 20 6 0 10 9 10 20 0 11 5 20 10 20 6 0 10 9 10 20 0 11 5 20 10 20 6 0 10
9 10 20 0 11 5 20 10 20 6 0 10 9 10 20 0 11 5 20 10 20 6 0 10 9 10 20 0 11
5 20 10 20 6 0 10 14 10 30 0 17 5 30 10 30 6 0 10 9 10 20 0 11 5 20 10 20 6
0 10 9 10 20 0 11 5 20 10 20 6 0 10 9 10 20 0 11 5 20 10 20 6 0 10 9 10 20
0 11 5 20 10 20 6 0 10 9 10 20 0 11 5 20 10 20 6 0 10 9 10 20 0 11 5 20 10
20 6 0 10 9 10 20 0 11 4 20 10 20 5 0 9 3 9 8 -4 21 3 40 25 65 l23 27 742 0
c746 0 764 1 796 34 6 6 35 59 64 119 30 59 58 107 62 107 5 0 9 6 9 13 0 20
85 107 104 107 9 0 16 4 16 9 0 20 74 24 495 32 242 4 476 13 520 19 44 6 211
14 370 18 l290 7 3 264 c2 191 -1 267 -9 278 -11 12 -143 14 -893 13 -485 -1
-893 -1 -907 -1 -28 1 -49 33 -49 76 0 13 -4 27 -10 30 -5 3 -10 14 -10 25 0
10 -7 21 -16 24 -24 9 -1850 5 -1919 -5z m-285 -1419 c0 -5 -4 -10 -10 -10 -5
0 -10 -6 -10 -13 0 -7 -9 -23 -20 -35 -11 -12 -20 -28 -20 -37 0 -8 -4 -15
-10 -15 -5 0 -10 -9 -10 -20 0 -11 -4 -20 -10 -20 -5 0 -10 -9 -10 -20 0 -11
-4 -20 -10 -20 -5 0 -10 -9 -10 -20 0 -11 -4 -20 -10 -20 -5 0 -10 -9 -10 -20
0 -11 -4 -20 -10 -20 -5 0 -10 -9 -10 -20 0 -11 -4 -20 -10 -20 -5 0 -10 -9
-10 -20 0 -11 -4 -20 -10 -20 -5 0 -10 -9 -10 -20 0 -11 -4 -20 -10 -20 -5 0
-10 -9 -10 -20 0 -11 -4 -20 -10 -20 -5 0 -10 -9 -10 -20 0 -11 -4 -20 -10
-20 -5 0 -10 -9 -10 -20 0 -11 -4 -20 -10 -20 -5 0 -10 -9 -10 -20 0 -11 -4
-20 -10 -20 -5 0 -10 -9 -10 -20 0 -11 -4 -20 -10 -20 -5 0 -10 -9 -10 -20 0
-11 -4 -20 -10 -20 -5 0 -10 -9 -10 -20 0 -11 -3 -20 -7 -20 -9 0 -33 -49 -33
-67 0 -7 -4 -13 -10 -13 -5 0 -10 -9 -10 -20 0 -11 -4 -20 -10 -20 -5 0 -10
-9 -10 -20 0 -11 -4 -20 -10 -20 -5 0 -10 -9 -10 -20 0 -11 -4 -20 -10 -20 -5
0 -10 -9 -10 -20 0 -11 -4 -20 -10 -20 -5 0 -10 -8 -10 -18 0 -10 -9 -24 -20
-32 -11 -8 -20 -20 -20 -28 0 -7 -9 -32 -20 -54 -11 -23 -20 -48 -20 -55 0 -7
-4 -13 -10 -13 -5 0 -10 -9 -10 -20 0 -11 -4 -20 -10 -20 -5 0 -10 -9 -10 -20
0 -11 -4 -20 -10 -20 -5 0 -10 -9 -10 -20 0 -11 -4 -20 -10 -20 -5 0 -10 -9
-10 -20 0 -11 -4 -20 -10 -20 -5 0 -10 -9 -10 -20 0 -11 -4 -20 -10 -20 -5 0
-10 -9 -10 -19 0 -11 -3 -21 -7 -23 -11 -4 -53 -87 -53 -104 0 -8 -4 -14 -10
-14 -5 0 -10 -9 -10 -20 0 -11 -4 -20 -10 -20 -5 0 -10 -9 -10 -20 0 -11 -4
-20 -10 -20 -5 0 -10 -9 -10 -20 0 -11 -4 -20 -10 -20 -5 0 -10 -9 -10 -20 0
-11 -4 -20 -10 -20 -5 0 -10 -9 -10 -20 0 -11 -4 -20 -10 -20 -5 0 -10 -9 -10
-20 0 -11 -4 -20 -10 -20 -5 0 -10 -9 -10 -20 0 -11 -4 -20 -10 -20 -5 0 -10
-9 -10 -20 0 -11 -4 -20 -10 -20 -5 0 -10 -6 -10 -14 0 -18 -118 -138 -150
-152 -60 -27 -83 -34 -115 -34 -19 0 -37 -4 -40 -10 -3 -5 -35 -10 -71 -10
-35 0 -64 -4 -64 -9 0 -6 -46 -12 -102 -15 -156 -7 -279 -15 -323 -22 -22 -3
-89 -10 -150 -15 -60 -5 -136 -11 -167 -15 -54 -5 -58 -4 -58 15 0 12 5 21 10
21 6 0 10 9 10 20 0 11 5 20 10 20 6 0 10 9 10 20 0 11 5 20 10 20 6 0 10 14
10 30 0 17 5 30 10 30 6 0 10 9 10 20 0 11 5 20 10 20 6 0 10 9 10 20 0 11 4
20 8 20 4 0 9 12 10 28 1 15 7 29 12 30 6 2 10 12 10 23 0 10 5 19 10 19 6 0
10 9 10 20 0 11 5 20 10 20 6 0 10 14 10 30 0 17 5 30 10 30 6 0 10 9 10 20 0
11 5 20 10 20 6 0 10 14 10 30 0 17 5 30 10 30 6 0 10 9 10 20 0 11 5 20 10
20 6 0 10 14 10 30 0 17 5 30 10 30 6 0 10 9 10 20 0 11 5 20 10 20 6 0 10 9
10 20 0 11 5 20 10 20 6 0 10 14 10 30 0 17 5 30 10 30 6 0 10 9 10 20 0 11 5
20 10 20 6 0 10 11 10 24 0 14 5 28 10 31 6 3 10 15 10 26 0 10 5 19 10 19 6
0 10 9 10 20 0 11 5 20 10 20 6 0 10 14 10 30 0 17 5 30 10 30 6 0 10 9 10 20
0 11 5 20 10 20 6 0 10 9 10 20 0 11 5 20 10 20 6 0 10 14 10 30 0 17 5 30 10
30 6 0 10 9 10 20 0 11 5 20 10 20 6 0 10 11 10 24 0 14 5 28 10 31 6 3 10 15
10 26 0 10 5 19 10 19 6 0 10 9 10 20 0 11 5 20 10 20 6 0 10 7 10 15 0 9 16
31 35 50 19 19 41 35 50 35 8 0 15 5 15 10 0 6 14 10 30 10 17 0 30 5 30 10 0
6 9 10 20 10 11 0 20 5 20 10 0 6 9 10 19 10 11 0 23 5 26 10 3 6 17 10 31 10
13 0 24 5 24 10 0 6 9 10 20 10 11 0 20 5 20 10 0 6 9 10 19 10 11 0 23 5 26
10 3 6 17 10 31 10 13 0 24 5 24 10 0 6 9 10 20 10 11 0 20 5 20 10 0 6 14 10
30 10 17 0 30 5 30 10 0 6 9 10 20 10 11 0 20 5 20 10 0 6 9 10 20 10 11 0 20
5 20 10 0 6 9 10 19 10 11 0 23 5 26 10 3 6 17 10 31 10 13 0 24 5 24 10 0 6
9 10 20 10 11 0 20 5 20 10 0 6 9 10 20 10 11 0 20 5 20 10 0 6 14 10 30 10
17 0 30 5 30 10 0 6 9 10 20 10 11 0 20 5 20 10 0 6 14 10 30 10 17 0 30 5 30
10 0 6 9 10 20 10 11 0 20 5 20 10 0 6 9 10 20 10 11 0 20 5 20 10 0 6 9 10
20 10 11 0 20 4 20 8 0 5 23 15 50 22 28 7 50 17 50 22 0 4 9 8 20 8 11 0 20
5 20 10 0 6 14 10 30 10 17 0 30 5 30 10 0 6 9 10 20 10 11 0 20 5 20 10 0 6
9 10 20 10 11 0 20 5 20 10 0 6 9 10 19 10 11 0 23 5 26 10 3 6 17 10 31 10
13 0 24 5 24 10 0 6 9 10 20 10 11 0 20 4 20 8 0 4 15 13 33 19 44 14 47 14
47 3z"/>
<path d="M12330 11070 c-8 -5 -27 -10 -43 -10 -34 0 -107 -22 -107 -32 0 -5
-6 -8 -14 -8 -19 0 -120 -99 -139 -136 -24 -47 -47 -116 -47 -141 0 -13 -4
-23 -9 -23 -8 0 -14 -23 -27 -113 -4 -20 -10 -40 -15 -43 -5 -3 -9 -23 -9 -45
0 -21 -4 -39 -10 -39 -5 0 -10 -18 -10 -40 0 -22 -4 -40 -10 -40 -5 0 -10 -20
-10 -44 0 -25 -4 -48 -10 -51 -5 -3 -10 -24 -10 -46 0 -21 -4 -39 -10 -39 -5
0 -10 -20 -10 -44 0 -25 -4 -48 -10 -51 -5 -3 -10 -24 -10 -45 0 -21 -4 -41
-9 -44 -5 -3 -11 -23 -14 -43 -3 -21 -11 -58 -17 -83 -6 -25 -15 -65 -20 -90
-5 -25 -14 -65 -20 -90 -6 -25 -14 -63 -17 -85 -3 -22 -9 -44 -14 -50 -5 -5
-9 -22 -9 -38 0 -15 -4 -36 -9 -45 -4 -9 -11 -43 -15 -74 l-6 -58 210 0 209 0
12 43 c7 23 16 60 20 82 4 22 13 60 19 85 14 55 29 132 37 183 3 20 9 40 14
43 5 3 9 23 9 45 0 21 5 39 10 39 6 0 10 20 10 44 0 25 5 48 10 51 6 3 10 19
10 36 l0 29 476 0 c367 0 478 3 488 13 6 6 13 32 15 57 1 25 7 47 12 48 5 2 9
27 9 55 0 37 3 48 10 37 7 -10 10 7 10 59 0 62 -2 72 -15 67 -11 -4 -739 -9
-923 -6 -14 0 -5 82 10 88 4 2 8 21 8 43 0 21 5 39 10 39 6 0 10 18 10 40 0
22 5 40 10 40 6 0 10 7 10 15 0 9 17 32 37 53 l37 37 513 0 c482 0 513 1 513
18 0 9 5 17 10 17 6 0 10 23 10 50 0 28 5 50 10 50 6 0 10 24 10 54 0 30 5 58
10 61 6 3 10 24 10 46 l0 39 -597 0 c-369 0 -604 -4 -613 -10z"/>
<path d="M13913 11065 c-7 -8 -13 -26 -13 -40 0 -14 -4 -25 -10 -25 -5 0 -10
-18 -10 -40 0 -22 -4 -40 -10 -40 -5 0 -10 -20 -10 -44 0 -25 -4 -48 -10 -51
-5 -3 -10 -24 -10 -46 0 -21 -4 -39 -10 -39 -5 0 -10 -22 -10 -50 0 -27 -4
-50 -10 -50 -5 0 -10 -18 -10 -40 0 -22 -4 -40 -10 -40 -5 0 -10 -22 -10 -50
0 -27 -4 -50 -10 -50 -5 0 -10 -18 -10 -40 0 -22 -4 -40 -10 -40 -5 0 -10 -22
-10 -50 0 -27 -4 -50 -10 -50 -5 0 -10 -18 -10 -40 0 -22 -4 -40 -10 -40 -5 0
-10 -20 -10 -44 0 -25 -4 -48 -10 -51 -5 -3 -10 -24 -10 -46 0 -21 -4 -39 -10
-39 -5 0 -10 -22 -10 -50 0 -27 -4 -50 -10 -50 -5 0 -10 -22 -10 -50 0 -29 -5
-50 -11 -50 -7 0 -9 -27 -6 -82 6 -102 16 -158 28 -158 5 0 9 -7 9 -15 0 -9 9
-25 20 -37 11 -12 20 -27 20 -34 0 -6 14 -17 30 -24 17 -7 30 -16 30 -21 0 -5
9 -9 20 -9 11 0 20 -4 20 -10 0 -5 9 -10 20 -10 11 0 20 -4 20 -9 0 -19 115
-24 650 -24 524 -1 650 4 650 24 0 5 6 9 13 9 18 0 67 24 67 33 0 4 7 7 15 7
20 0 125 105 125 125 0 8 5 15 10 15 6 0 10 9 10 20 0 11 5 20 10 20 6 0 10 9
10 20 0 11 5 20 10 20 6 0 10 14 10 30 0 17 5 30 10 30 6 0 10 14 10 30 0 17
5 30 10 30 6 0 10 23 10 50 0 28 5 50 10 50 6 0 10 18 10 40 0 22 5 40 10 40
6 0 10 23 10 50 0 28 5 50 10 50 6 0 10 18 10 40 0 22 5 40 10 40 6 0 10 18
10 40 0 22 5 40 10 40 6 0 10 18 10 40 0 22 5 40 10 40 6 0 10 23 10 50 0 28
5 50 10 50 6 0 10 18 10 40 0 22 5 40 10 40 6 0 10 23 10 50 0 28 5 50 10 50
6 0 10 18 10 40 0 22 5 40 10 40 6 0 10 23 10 50 0 28 5 50 10 50 6 0 10 18
10 40 0 22 5 40 10 40 6 0 10 23 10 50 0 28 5 50 10 50 6 0 10 18 10 39 0 22
5 41 12 43 9 3 8 9 -4 21 -14 15 -43 17 -222 17 -199 0 -206 -1 -206 -20 0
-11 -4 -20 -9 -20 -8 0 -11 -15 -27 -132 -3 -27 -10 -48 -15 -48 -5 0 -9 -22
-9 -50 0 -27 -4 -50 -10 -50 -5 0 -10 -18 -10 -40 0 -22 -4 -40 -10 -40 -5 0
-10 -22 -10 -50 0 -27 -4 -50 -10 -50 -5 0 -10 -18 -10 -40 0 -22 -4 -40 -10
-40 -5 0 -10 -18 -10 -40 0 -22 -4 -40 -10 -40 -5 0 -10 -22 -10 -50 0 -27 -4
-50 -10 -50 -5 0 -10 -18 -10 -40 0 -22 -4 -40 -10 -40 -5 0 -10 -22 -10 -50
0 -27 -4 -50 -10 -50 -5 0 -10 -18 -10 -40 0 -22 -4 -40 -10 -40 -5 0 -10 -22
-10 -50 0 -27 -4 -50 -10 -50 -5 0 -10 -18 -10 -40 0 -22 -4 -40 -10 -40 -5 0
-10 -13 -10 -30 0 -16 -4 -30 -10 -30 -5 0 -10 -7 -10 -16 0 -24 -79 -97 -121
-112 -25 -8 -132 -12 -372 -12 -357 0 -354 0 -406 50 -24 22 -26 30 -23 105 1
44 7 82 12 83 6 2 10 26 10 53 0 27 5 49 10 49 6 0 10 18 10 40 0 22 5 40 10
40 6 0 10 18 10 40 0 22 5 40 10 40 6 0 10 18 10 40 0 22 5 40 10 40 6 0 10
23 10 50 0 28 5 50 10 50 6 0 10 18 10 40 0 22 5 40 10 40 6 0 10 23 10 50 0
28 5 50 10 50 6 0 10 18 10 40 0 22 5 40 10 40 6 0 10 23 10 50 0 28 5 50 10
50 6 0 10 18 10 40 0 22 5 40 10 40 6 0 10 23 10 50 0 28 5 50 10 50 6 0 10
18 10 40 0 22 4 40 8 40 5 0 9 22 11 49 l2 50 -208 0 c-169 1 -210 -2 -220
-14z"/>
<path d="M16390 11070 c-8 -5 -32 -10 -52 -10 -21 0 -38 -4 -38 -10 0 -5 -9
-10 -20 -10 -11 0 -20 -4 -20 -9 0 -5 -9 -13 -20 -16 -49 -16 -160 -154 -160
-199 0 -9 -4 -16 -10 -16 -5 0 -10 -18 -10 -40 0 -22 -4 -40 -10 -40 -5 0 -10
-20 -10 -44 0 -25 -4 -48 -10 -51 -5 -3 -10 -24 -10 -46 0 -21 -4 -39 -10 -39
-5 0 -10 -18 -10 -40 0 -22 -4 -40 -10 -40 -5 0 -10 -22 -10 -50 0 -27 -4 -50
-10 -50 -5 0 -10 -18 -10 -40 0 -22 -4 -40 -10 -40 -5 0 -10 -20 -10 -44 0
-25 -4 -48 -10 -51 -5 -3 -10 -24 -10 -46 0 -21 -4 -39 -10 -39 -5 0 -10 -18
-10 -40 0 -22 -4 -40 -10 -40 -5 0 -10 -22 -10 -50 0 -27 -4 -50 -10 -50 -5 0
-10 -18 -10 -40 0 -22 -4 -40 -10 -40 -6 0 -10 -51 -10 -134 0 -79 4 -137 10
-141 6 -3 10 -15 10 -26 0 -10 5 -19 10 -19 6 0 10 -7 10 -16 0 -19 33 -50 61
-59 11 -4 19 -10 19 -13 0 -4 21 -13 48 -20 26 -7 61 -17 78 -22 18 -6 271
-10 620 -10 l590 0 22 25 c16 18 22 38 22 70 0 25 4 45 9 45 4 0 9 36 10 80
l2 80 -513 0 -513 0 -30 26 c-29 25 -30 28 -27 107 1 45 7 84 12 85 6 2 10 21
10 43 0 21 5 39 10 39 6 0 10 18 10 40 l0 40 500 0 500 0 0 24 c0 14 5 28 10
31 6 3 10 28 10 56 0 27 5 49 10 49 6 0 10 22 10 50 0 27 5 60 11 74 24 52 27
51 -492 48 l-479 -4 0 36 c0 20 5 36 10 36 6 0 10 18 10 40 0 22 5 40 10 40 6
0 10 18 10 40 0 22 5 40 10 40 6 0 10 14 10 30 0 17 5 30 10 30 6 0 10 8 10
17 0 9 3 13 6 10 4 -4 16 3 26 16 l20 22 511 0 c282 0 522 4 535 8 12 5 22 17
22 28 0 10 5 19 10 19 6 0 10 18 10 40 0 22 5 40 10 40 6 0 10 18 10 40 0 22
5 40 10 40 6 0 10 27 10 60 l0 60 -627 0 c-388 0 -634 -4 -643 -10z"/>
<path d="M18093 11074 c-7 -3 -13 -14 -13 -24 0 -10 -4 -22 -10 -25 -5 -3 -10
-24 -10 -46 0 -21 -4 -39 -10 -39 -5 0 -10 -18 -10 -40 0 -22 -4 -40 -10 -40
-5 0 -10 -20 -10 -44 0 -25 -4 -48 -10 -51 -5 -3 -10 -24 -10 -46 0 -21 -4
-39 -10 -39 -5 0 -10 -18 -10 -40 0 -22 -4 -40 -10 -40 -5 0 -10 -20 -10 -44
0 -25 -4 -48 -10 -51 -5 -3 -10 -21 -10 -40 0 -19 -4 -37 -10 -40 -5 -3 -10
-24 -10 -46 0 -21 -4 -39 -10 -39 -5 0 -10 -18 -10 -40 0 -22 -4 -40 -10 -40
-5 0 -10 -20 -10 -44 0 -25 -4 -48 -10 -51 -5 -3 -10 -24 -10 -46 0 -21 -4
-39 -8 -39 -5 0 -9 -21 -11 -47 -1 -27 -6 -49 -12 -51 -5 -2 -9 -21 -9 -43 0
-21 -4 -39 -10 -39 -5 0 -10 -22 -10 -50 0 -27 -4 -50 -10 -50 -6 0 -10 -30
-10 -70 0 -40 4 -70 10 -70 6 0 10 -15 10 -33 0 -34 20 -87 33 -87 4 0 7 -7 7
-15 0 -20 65 -85 85 -85 8 0 15 -4 15 -10 0 -5 11 -10 23 -10 13 0 27 -3 31
-7 26 -26 143 -32 639 -32 l517 -1 12 28 c17 44 48 183 51 237 l2 30 -440 3
c-469 2 -476 3 -521 53 -16 18 -19 34 -16 103 1 44 7 83 12 84 6 2 10 26 10
53 0 27 5 49 10 49 6 0 10 18 10 40 0 22 5 40 10 40 6 0 10 18 10 40 0 22 5
40 10 40 6 0 10 21 10 46 0 27 4 43 10 39 6 -4 10 13 10 44 0 28 5 51 10 51 6
0 10 18 10 40 0 22 5 40 10 40 6 0 10 23 10 50 0 28 5 50 10 50 6 0 10 18 10
40 0 22 4 40 9 40 5 0 12 21 15 48 16 117 19 132 27 132 5 0 9 18 9 40 0 22 4
40 9 40 5 0 12 19 15 43 17 127 18 140 7 147 -14 8 -380 12 -398 4z"/>
<path d="M20483 10383 c81 -2 213 -2 295 0 81 1 14 3 -148 3 -162 0 -229 -2
-147 -3z"/>
<path d="M20973 10383 c9 -2 23 -2 30 0 6 3 -1 5 -18 5 -16 0 -22 -2 -12 -5z"/>
<path d="M19480 9407 c0 -13 23 -15 168 -14 l167 1 -154 3 c-93 2 -160 8 -168
14 -10 9 -13 8 -13 -4z"/>
<path d="M22728 9393 c7 -3 16 -2 19 1 4 3 -2 6 -13 5 -11 0 -14 -3 -6 -6z"/>
<path d="M22778 9393 c12 -2 32 -2 45 0 12 2 2 4 -23 4 -25 0 -35 -2 -22 -4z"/>
<path d="M16955 8728 c-83 -30 -129 -97 -129 -188 2 -155 138 -236 311 -185
l50 15 8 101 c4 56 3 104 -2 108 -4 4 -54 5 -111 1 -107 -6 -122 -12 -122 -54
0 -18 6 -19 80 -13 l80 6 0 -49 c0 -58 -14 -70 -86 -70 -81 0 -127 42 -139
128 -16 107 113 188 212 132 48 -26 87 -24 91 6 4 28 -20 51 -66 64 -47 13
-138 12 -177 -2z"/>
<path d="M18438 8733 c-16 -4 -18 -22 -18 -199 l0 -194 30 0 30 0 0 84 c0 48
5 88 10 91 6 4 60 3 120 0 l110 -8 0 -83 0 -84 35 0 35 0 0 195 0 195 -35 0
-35 0 0 -75 0 -75 -115 0 -114 0 -3 77 c-3 81 -8 88 -50 76z"/>
<path d="M21077 8726 c-50 -18 -78 -45 -105 -100 -68 -135 31 -288 188 -290
113 -2 200 88 200 207 0 45 -6 63 -32 103 -19 27 -48 57 -68 66 -50 25 -137
31 -183 14z m139 -65 c58 -26 84 -63 84 -120 0 -89 -56 -141 -151 -141 -44 0
-55 4 -84 33 -51 51 -59 140 -17 195 17 22 80 51 112 51 8 0 33 -8 56 -18z"/>
<path d="M22655 8725 c-47 -17 -75 -47 -75 -82 0 -57 33 -81 146 -109 91 -22
114 -37 114 -74 0 -67 -112 -81 -222 -27 -30 15 -58 27 -62 27 -4 0 -6 -15 -4
-32 2 -28 10 -37 47 -55 57 -29 144 -47 189 -38 22 4 50 21 74 45 32 32 38 44
38 82 0 74 -40 110 -140 123 -72 10 -96 20 -110 44 -9 18 -6 23 21 37 38 19
100 15 149 -10 43 -21 57 -20 70 4 12 23 -8 40 -79 65 -53 18 -103 19 -156 0z"/>
<path d="M23398 8731 c-15 -5 -14 -10 9 -46 14 -22 47 -78 74 -124 46 -78 49
-89 49 -153 l0 -68 35 0 35 0 0 78 0 77 75 118 c41 65 75 120 75 122 0 11 -48
4 -68 -11 -20 -14 -58 -70 -100 -150 -17 -32 -28 -30 -40 6 -16 45 -89 147
-109 152 -10 3 -26 2 -35 -1z"/>
<path d="M24039 8731 c-83 -27 -133 -97 -133 -186 0 -66 15 -103 61 -149 39
-40 83 -56 153 -56 89 0 146 37 185 123 35 76 -7 202 -81 244 -43 24 -144 37
-185 24z m145 -80 c34 -19 66 -74 66 -114 0 -76 -60 -137 -135 -137 -95 0
-165 95 -135 184 13 42 37 64 87 81 42 15 73 11 117 -14z"/>
<path d="M24540 8595 c0 -169 13 -210 74 -239 51 -24 136 -21 176 7 69 46 75
63 78 223 l4 144 -36 0 -36 0 0 -128 c0 -131 -6 -155 -48 -189 -19 -16 -76
-17 -102 -3 -36 19 -45 52 -50 190 l-5 135 -27 3 -28 3 0 -146z"/>
<path d="M14050 8535 l0 -195 35 0 35 0 0 88 0 87 98 0 97 1 3 34 3 35 -101
-3 -100 -4 0 44 0 43 104 -3 103 -4 7 27 c4 14 4 30 1 35 -4 6 -68 10 -146 10
l-139 0 0 -195z"/>
<path d="M14520 8593 c0 -124 3 -142 23 -177 31 -55 78 -81 147 -80 65 0 109
21 142 66 21 30 23 45 26 181 l4 147 -31 0 -31 0 0 -107 c0 -177 -23 -223
-109 -223 -42 0 -54 5 -80 31 l-31 31 0 134 0 134 -30 0 -30 0 0 -137z"/>
<path d="M15068 8718 c-3 -7 -6 -95 -7 -195 l-2 -183 146 0 145 0 0 30 0 30
-110 0 -110 0 0 60 0 59 103 3 102 3 3 28 3 27 -105 0 -106 0 0 40 0 40 110 0
110 0 0 35 0 35 -139 0 c-102 0 -140 -3 -143 -12z"/>
<path d="M15600 8535 l0 -196 133 3 132 3 3 28 3 27 -105 0 -106 0 0 165 0
165 -30 0 -30 0 0 -195z"/>
<path d="M16020 8541 c0 -202 0 -201 51 -201 18 0 19 9 19 195 l0 195 -35 0
-35 0 0 -189z"/>
<path d="M16310 8535 l0 -195 35 0 34 0 3 153 3 152 25 -37 c14 -20 65 -89
113 -152 70 -92 93 -116 113 -116 l24 0 0 158 c0 86 3 174 6 195 l7 37 -37 0
-36 0 0 -131 c0 -72 -4 -128 -9 -125 -5 3 -51 62 -102 131 l-94 125 -42 0 -43
0 0 -195z"/>
<path d="M17630 8725 c0 -4 8 -20 17 -38 9 -18 38 -94 64 -170 70 -204 97
-223 141 -104 15 39 37 102 49 139 21 64 39 80 39 37 0 -25 67 -218 82 -236 6
-7 23 -13 38 -13 30 0 41 19 81 145 12 39 37 106 56 150 18 44 33 83 33 88 0
4 -16 7 -37 5 l-36 -3 -34 -95 c-19 -52 -42 -120 -53 -150 l-19 -55 -12 30
c-6 17 -29 84 -49 150 -25 80 -43 121 -53 123 -26 5 -54 -16 -60 -45 -11 -62
-55 -205 -66 -216 -17 -17 -25 -3 -66 136 l-39 127 -38 0 c-21 0 -38 -2 -38
-5z"/>
<path d="M19120 8719 c0 -6 -6 -25 -14 -42 -82 -179 -146 -323 -146 -329 0 -5
11 -8 25 -8 25 0 61 31 71 62 5 16 17 18 109 18 l105 0 20 -40 c17 -33 26 -40
50 -40 17 0 30 4 30 9 0 4 -27 68 -61 142 -33 74 -70 158 -81 187 -21 52 -21
52 -64 52 -25 0 -44 -5 -44 -11z m103 -195 l24 -62 -29 10 c-15 5 -50 8 -78 6
-32 -2 -50 1 -50 8 0 6 13 40 28 75 16 35 32 73 36 84 7 18 10 15 27 -20 10
-22 29 -68 42 -101z"/>
<path d="M19487 8723 c-11 -3 -16 -10 -13 -20 3 -8 6 -21 6 -29 0 -11 16 -14
70 -14 l70 0 0 -160 0 -160 30 0 30 0 0 160 0 160 70 0 c67 0 71 1 80 26 6 14
8 30 4 35 -5 9 -313 11 -347 2z"/>
<path d="M20340 8535 l0 -195 30 0 29 0 3 152 3 152 59 -134 c33 -74 66 -142
73 -150 13 -13 17 -11 39 15 22 28 104 219 104 244 0 6 5 11 10 11 6 0 10 -55
10 -145 l0 -145 30 0 30 0 0 195 0 195 -40 0 c-33 0 -42 -4 -49 -22 -5 -13
-27 -61 -49 -108 -21 -47 -42 -95 -46 -107 -4 -11 -13 -27 -21 -33 -13 -10
-15 -8 -15 13 0 14 -25 78 -56 141 l-56 116 -44 0 -44 0 0 -195z"/>
<path d="M21500 8721 c0 -4 28 -75 61 -157 34 -82 67 -165 74 -184 10 -28 19
-36 43 -38 26 -3 33 3 54 40 14 24 44 90 68 148 23 58 51 122 61 142 26 51 24
58 -16 58 -33 0 -37 -3 -61 -57 -21 -49 -60 -148 -89 -228 l-7 -20 -9 20 c-31
72 -99 253 -99 262 0 6 -7 14 -16 17 -23 9 -64 7 -64 -3z"/>
<path d="M22060 8535 l0 -195 140 0 140 0 0 30 0 30 -110 0 -111 0 3 58 3 57
100 5 100 5 3 28 3 27 -106 0 -106 0 3 41 3 41 105 2 105 1 3 33 3 32 -140 0
-141 0 0 -195z"/>
</g>
</svg>
